<svg width="37" height="37" viewBox="0 0 37 37" fill="none" xmlns="http://www.w3.org/2000/svg">
<path d="M29.2917 16.9583H7.70833C6.00546 16.9583 4.625 18.3388 4.625 20.0417V30.8333C4.625 32.5362 6.00546 33.9167 7.70833 33.9167H29.2917C30.9945 33.9167 32.375 32.5362 32.375 30.8333V20.0417C32.375 18.3388 30.9945 16.9583 29.2917 16.9583Z" stroke="#0075FF" stroke-width="4" stroke-linecap="round" stroke-linejoin="round"/>
<path d="M10.7915 16.9583V10.7917C10.7896 8.88007 11.498 7.03595 12.7793 5.61731C14.0606 4.19867 15.8232 3.30672 17.7252 3.1146C19.6271 2.92249 21.5325 3.44393 23.0716 4.57768C24.6107 5.71144 25.6736 7.37663 26.054 9.24999V16.9583" stroke="#0075FF" stroke-width="4" stroke-linecap="round" stroke-linejoin="round"/>
</svg>
